<svg xmlns="http://www.w3.org/2000/svg" viewBox="0 0 100 100">
<g><circle cx="38.6" cy="27.2" r="1.88" fill="#DCE7FB"/><circle cx="44.3" cy="27.2" r="1.99" fill="#DCE7FB"/><circle cx="50" cy="27.2" r="2.03" fill="#DCE7FB"/><circle cx="55.7" cy="27.2" r="1.99" fill="#DCE7FB"/><circle cx="61.4" cy="27.2" r="1.88" fill="#DCE7FB"/><circle cx="32.9" cy="32.9" r="1.96" fill="#DCE7FB"/><circle cx="38.6" cy="32.9" r="2.14" fill="#DCE7FB"/><circle cx="44.3" cy="32.9" r="2.24" fill="#DCE7FB"/><circle cx="50" cy="32.9" r="2.27" fill="#DCE7FB"/><circle cx="55.7" cy="32.9" r="2.24" fill="#DCE7FB"/><circle cx="61.4" cy="32.9" r="2.14" fill="#DCE7FB"/><circle cx="67.1" cy="32.9" r="1.96" fill="#DCE7FB"/><circle cx="27.2" cy="38.6" r="1.88" fill="#DCE7FB"/><circle cx="32.9" cy="38.6" r="2.14" fill="#DCE7FB"/><circle cx="38.6" cy="38.6" r="2.31" fill="#DCE7FB"/><circle cx="44.3" cy="38.6" r="2.4" fill="#DCE7FB"/><circle cx="50" cy="38.6" r="2.43" fill="#DCE7FB"/><circle cx="55.7" cy="38.6" r="2.4" fill="#DCE7FB"/><circle cx="61.4" cy="38.6" r="2.31" fill="#DCE7FB"/><circle cx="67.1" cy="38.6" r="2.14" fill="#DCE7FB"/><circle cx="72.8" cy="38.6" r="1.88" fill="#DCE7FB"/><circle cx="27.2" cy="44.3" r="1.99" fill="#DCE7FB"/><circle cx="32.9" cy="44.3" r="2.24" fill="#DCE7FB"/><circle cx="38.6" cy="44.3" r="2.4" fill="#DCE7FB"/><circle cx="44.3" cy="44.3" r="2.49" fill="#DCE7FB"/><circle cx="50" cy="44.3" r="2.52" fill="#DCE7FB"/><circle cx="55.7" cy="44.3" r="2.49" fill="#DCE7FB"/><circle cx="61.4" cy="44.3" r="2.4" fill="#DCE7FB"/><circle cx="67.1" cy="44.3" r="2.24" fill="#DCE7FB"/><circle cx="72.8" cy="44.3" r="1.99" fill="#DCE7FB"/><circle cx="27.2" cy="50" r="2.03" fill="#DCE7FB"/><circle cx="32.9" cy="50" r="2.27" fill="#DCE7FB"/><circle cx="38.6" cy="50" r="2.43" fill="#DCE7FB"/><circle cx="44.3" cy="50" r="2.52" fill="#DCE7FB"/><circle cx="50" cy="50" r="2.55" fill="#DCE7FB"/><circle cx="55.7" cy="50" r="2.52" fill="#DCE7FB"/><circle cx="61.4" cy="50" r="2.43" fill="#DCE7FB"/><circle cx="67.1" cy="50" r="2.27" fill="#DCE7FB"/><circle cx="72.8" cy="50" r="2.03" fill="#DCE7FB"/><circle cx="27.2" cy="55.7" r="1.99" fill="#DCE7FB"/><circle cx="32.9" cy="55.7" r="2.24" fill="#DCE7FB"/><circle cx="38.6" cy="55.7" r="2.4" fill="#DCE7FB"/><circle cx="44.3" cy="55.7" r="2.49" fill="#DCE7FB"/><circle cx="50" cy="55.7" r="2.52" fill="#DCE7FB"/><circle cx="55.7" cy="55.7" r="2.49" fill="#DCE7FB"/><circle cx="61.4" cy="55.7" r="2.4" fill="#DCE7FB"/><circle cx="67.1" cy="55.7" r="2.24" fill="#DCE7FB"/><circle cx="72.8" cy="55.7" r="1.99" fill="#DCE7FB"/><circle cx="27.2" cy="61.4" r="1.88" fill="#DCE7FB"/><circle cx="32.9" cy="61.4" r="2.14" fill="#DCE7FB"/><circle cx="38.6" cy="61.4" r="2.31" fill="#DCE7FB"/><circle cx="44.3" cy="61.4" r="2.4" fill="#DCE7FB"/><circle cx="50" cy="61.4" r="2.43" fill="#DCE7FB"/><circle cx="55.7" cy="61.4" r="2.4" fill="#DCE7FB"/><circle cx="61.4" cy="61.4" r="2.31" fill="#DCE7FB"/><circle cx="67.1" cy="61.4" r="2.14" fill="#DCE7FB"/><circle cx="72.8" cy="61.4" r="1.88" fill="#DCE7FB"/><circle cx="32.9" cy="67.1" r="1.96" fill="#DCE7FB"/><circle cx="38.6" cy="67.1" r="2.14" fill="#DCE7FB"/><circle cx="44.3" cy="67.1" r="2.24" fill="#DCE7FB"/><circle cx="50" cy="67.1" r="2.27" fill="#DCE7FB"/><circle cx="55.7" cy="67.1" r="2.24" fill="#DCE7FB"/><circle cx="61.4" cy="67.1" r="2.14" fill="#DCE7FB"/><circle cx="67.1" cy="67.1" r="1.96" fill="#DCE7FB"/><circle cx="38.6" cy="72.8" r="1.88" fill="#DCE7FB"/><circle cx="44.3" cy="72.8" r="1.99" fill="#DCE7FB"/><circle cx="50" cy="72.8" r="2.03" fill="#DCE7FB"/><circle cx="55.7" cy="72.8" r="1.99" fill="#DCE7FB"/><circle cx="61.4" cy="72.8" r="1.88" fill="#DCE7FB"/></g>
<path d="M 10.1 64.5 A 42.5 42.5 0 0 1 78.4 18.4" fill="none" stroke="#7FA8F5" stroke-width="6.5" stroke-linecap="round"/>
<path d="M 92.1 44.1 A 42.5 42.5 0 0 1 61.0 91.1" fill="none" stroke="#3E7BFA" stroke-width="6.5" stroke-linecap="round"/>
<path d="M 30 57 L 46 72 L 88 30" fill="none" stroke="#0A1230" stroke-width="16.5" stroke-linecap="round" stroke-linejoin="round"/>
<path d="M 30 57 L 46 72 L 88 30" fill="none" stroke="#3E7BFA" stroke-width="9.5" stroke-linecap="round" stroke-linejoin="round"/>
</svg>